<svg width="67" height="67" viewBox="0 0 67 67" fill="none" xmlns="http://www.w3.org/2000/svg">
<circle cx="34" cy="34" r="30" fill="#D9D9D9"/>
<circle cx="34" cy="34" r="30" fill="url(#paint0_linear_238_35598)"/>
<mask id="path-2-outside-1_238_35598" maskUnits="userSpaceOnUse" x="16" y="16" width="35" height="35" fill="black">
<rect fill="white" x="16" y="16" width="35" height="35"/>
<path fill-rule="evenodd" clip-rule="evenodd" d="M31.0474 19.1392C31.2114 17.9311 32.247 17 33.5 17C34.8669 17 35.975 18.1081 35.975 19.475V31.025H47.525L47.8609 31.0474C49.0687 31.2114 50 32.247 50 33.5C50 34.8669 48.8919 35.975 47.525 35.975H35.975V47.525L35.9526 47.8609C35.7885 49.0687 34.753 50 33.5 50C32.1331 50 31.025 48.8919 31.025 47.525V35.975H19.475L19.1392 35.9526C17.9311 35.7885 17 34.753 17 33.5C17 32.1331 18.1081 31.025 19.475 31.025H31.025V19.475L31.0474 19.1392Z"/>
</mask>
<path fill-rule="evenodd" clip-rule="evenodd" d="M31.0474 19.1392C31.2114 17.9311 32.247 17 33.5 17C34.8669 17 35.975 18.1081 35.975 19.475V31.025H47.525L47.8609 31.0474C49.0687 31.2114 50 32.247 50 33.5C50 34.8669 48.8919 35.975 47.525 35.975H35.975V47.525L35.9526 47.8609C35.7885 49.0687 34.753 50 33.5 50C32.1331 50 31.025 48.8919 31.025 47.525V35.975H19.475L19.1392 35.9526C17.9311 35.7885 17 34.753 17 33.5C17 32.1331 18.1081 31.025 19.475 31.025H31.025V19.475L31.0474 19.1392Z" fill="white"/>
<path d="M31.0474 19.1392L30.0565 19.0046L30.0519 19.0384L30.0497 19.0725L31.0474 19.1392ZM35.975 31.025H34.975V32.025H35.975V31.025ZM47.525 31.025L47.5916 30.0272L47.5584 30.025H47.525V31.025ZM47.8609 31.0474L47.9955 30.0565L47.9617 30.0519L47.9276 30.0497L47.8609 31.0474ZM35.975 35.975V34.975H34.975V35.975H35.975ZM35.975 47.525L36.9728 47.5916L36.975 47.5584V47.525H35.975ZM35.9526 47.8609L36.9435 47.9955L36.9481 47.9617L36.9503 47.9276L35.9526 47.8609ZM31.025 35.975H32.025V34.975H31.025V35.975ZM19.475 35.975L19.4083 36.9728L19.4416 36.975H19.475V35.975ZM19.1392 35.9526L19.0046 36.9435L19.0384 36.9481L19.0725 36.9503L19.1392 35.9526ZM31.025 31.025V32.025H32.025V31.025H31.025ZM31.025 19.475L30.0272 19.4083L30.025 19.4416V19.475H31.025ZM33.5 16C31.7399 16 30.2869 17.3076 30.0565 19.0046L32.0383 19.2737C32.136 18.5546 32.7541 18 33.5 18V16ZM36.975 19.475C36.975 17.5558 35.4191 16 33.5 16V18C34.3146 18 34.975 18.6604 34.975 19.475H36.975ZM36.975 31.025V19.475H34.975V31.025H36.975ZM47.525 30.025H35.975V32.025H47.525V30.025ZM47.9276 30.0497L47.5916 30.0272L47.4584 32.0228L47.7943 32.0452L47.9276 30.0497ZM51 33.5C51 31.7399 49.6922 30.2869 47.9955 30.0565L47.7264 32.0383C48.4452 32.136 49 32.7541 49 33.5H51ZM47.525 36.975C49.4441 36.975 51 35.4191 51 33.5H49C49 34.3146 48.3396 34.975 47.525 34.975V36.975ZM35.975 36.975H47.525V34.975H35.975V36.975ZM36.975 47.525V35.975H34.975V47.525H36.975ZM36.9503 47.9276L36.9728 47.5916L34.9772 47.4584L34.9548 47.7943L36.9503 47.9276ZM33.5 51C35.2601 51 36.7131 49.6922 36.9435 47.9955L34.9617 47.7264C34.864 48.4453 34.2459 49 33.5 49V51ZM30.025 47.525C30.025 49.4441 31.5809 51 33.5 51V49C32.6854 49 32.025 48.3396 32.025 47.525H30.025ZM30.025 35.975V47.525H32.025V35.975H30.025ZM19.475 36.975H31.025V34.975H19.475V36.975ZM19.0725 36.9503L19.4083 36.9728L19.5417 34.9772L19.2058 34.9548L19.0725 36.9503ZM16 33.5C16 35.2601 17.3076 36.7131 19.0046 36.9435L19.2737 34.9617C18.5546 34.864 18 34.2459 18 33.5H16ZM19.475 30.025C17.5558 30.025 16 31.5809 16 33.5H18C18 32.6854 18.6604 32.025 19.475 32.025V30.025ZM31.025 30.025H19.475V32.025H31.025V30.025ZM30.025 19.475V31.025H32.025V19.475H30.025ZM30.0497 19.0725L30.0272 19.4083L32.0228 19.5417L32.0452 19.2058L30.0497 19.0725Z" fill="white" mask="url(#path-2-outside-1_238_35598)"/>
<defs>
<linearGradient id="paint0_linear_238_35598" x1="3.08333" y1="4" x2="67.4906" y2="9.11858" gradientUnits="userSpaceOnUse">
<stop stop-color="#FFA7E1"/>
<stop offset="1" stop-color="#9322CC" stop-opacity="0.7"/>
</linearGradient>
</defs>
</svg>
