<svg width="18" height="15" viewBox="0 0 18 15" fill="none" xmlns="http://www.w3.org/2000/svg">
<path fill-rule="evenodd" clip-rule="evenodd" d="M1 2.14473H9.17C9.3766 1.51759 9.75974 0.974535 10.2666 0.590407C10.7735 0.20628 11.3791 0 12 0C12.6209 0 13.2265 0.20628 13.7334 0.590407C14.2403 0.974535 14.6234 1.51759 14.83 2.14473H17C17.2652 2.14473 17.5196 2.25757 17.7071 2.45844C17.8946 2.6593 18 2.93172 18 3.21579C18 3.49985 17.8946 3.77227 17.7071 3.97313C17.5196 4.174 17.2652 4.28684 17 4.28684H14.83C14.6234 4.91398 14.2403 5.45704 13.7334 5.84116C13.2265 6.22529 12.6209 6.43157 12 6.43157C11.3791 6.43157 10.7735 6.22529 10.2666 5.84116C9.75974 5.45704 9.3766 4.91398 9.17 4.28684H1C0.734784 4.28684 0.48043 4.174 0.292893 3.97313C0.105357 3.77227 0 3.49985 0 3.21579C0 2.93172 0.105357 2.6593 0.292893 2.45844C0.48043 2.25757 0.734784 2.14473 1 2.14473ZM1 10.7132H3.17C3.3766 10.086 3.75974 9.54296 4.2666 9.15883C4.77346 8.77471 5.37909 8.56843 6 8.56843C6.62091 8.56843 7.22654 8.77471 7.7334 9.15883C8.24026 9.54296 8.6234 10.086 8.83 10.7132H17C17.2652 10.7132 17.5196 10.826 17.7071 11.0269C17.8946 11.2277 18 11.5002 18 11.7842C18 12.0683 17.8946 12.3407 17.7071 12.5416C17.5196 12.7424 17.2652 12.8553 17 12.8553H8.83C8.6234 13.4824 8.24026 14.0255 7.7334 14.4096C7.22654 14.7937 6.62091 15 6 15C5.37909 15 4.77346 14.7937 4.2666 14.4096C3.75974 14.0255 3.3766 13.4824 3.17 12.8553H1C0.734784 12.8553 0.48043 12.7424 0.292893 12.5416C0.105357 12.3407 0 12.0683 0 11.7842C0 11.5002 0.105357 11.2277 0.292893 11.0269C0.48043 10.826 0.734784 10.7132 1 10.7132Z" fill="#B34FD1"/>
</svg>
