<svg width="25" height="26" viewBox="0 0 25 26" fill="none" xmlns="http://www.w3.org/2000/svg">
<path d="M10.4854 1.19721C11.6492 0.267595 13.3508 0.267595 14.5146 1.19722L23.8896 8.68606C24.5936 9.24853 25 10.0766 25 10.9491V23.1976C25 24.4692 23.9118 25.5 22.5694 25.5H17.7083C16.366 25.5 15.2778 24.4692 15.2778 23.1976V16.61C15.2778 16.4284 15.1224 16.2811 14.9306 16.2811H10.0694C9.87764 16.2811 9.72221 16.4284 9.72221 16.61V23.1976C9.72221 24.4692 8.63403 25.5 7.29167 25.5H2.43056C1.08819 25.5 0 24.4692 0 23.1976V10.9491C0 10.0766 0.406319 9.24853 1.11044 8.68606L10.4854 1.19721ZM13.1715 2.70588C12.7836 2.39601 12.2164 2.39601 11.8285 2.70588L2.45349 10.1947C2.21878 10.3822 2.08333 10.6582 2.08333 10.9491V23.1976C2.08333 23.3793 2.23879 23.5265 2.43056 23.5265H7.29167C7.48343 23.5265 7.63888 23.3793 7.63888 23.1976V16.61C7.63888 15.3384 8.72708 14.3076 10.0694 14.3076H14.9306C16.2729 14.3076 17.3611 15.3384 17.3611 16.61V23.1976C17.3611 23.3793 17.5165 23.5265 17.7083 23.5265H22.5694C22.7612 23.5265 22.9167 23.3793 22.9167 23.1976V10.9491C22.9167 10.6582 22.7812 10.3822 22.5465 10.1947L13.1715 2.70588Z" fill="#B34FD1"/>
</svg>
