<svg width="29" height="28" viewBox="0 0 29 28" fill="none" xmlns="http://www.w3.org/2000/svg">
<path d="M17.5652 17.2776C17.5652 17.2776 17.5573 17.2776 17.5547 17.2776C17.5521 17.2776 17.5468 17.2776 17.5442 17.2776H17.5652Z" fill="#FFBDE9" stroke="#FFBDE9" stroke-width="2" stroke-miterlimit="10"/>
<path d="M17.8216 10.5888C17.5119 10.4866 17.161 10.5694 16.9468 10.791L14.3869 13.3942L11.827 10.791C11.6128 10.5694 11.2618 10.4866 10.9522 10.5888C10.6425 10.6911 10.4309 10.9492 10.4309 11.2342V16.5892C10.4309 16.9666 10.7948 17.2808 11.2309 17.2808C11.667 17.2808 12.0308 16.9666 12.0308 16.5892V13.1093L13.7908 14.8992C13.9404 15.055 14.1649 15.1475 14.3998 15.1475C14.6346 15.1475 14.8591 15.055 15.0088 14.8992L16.7687 13.1093V16.5892C16.7687 16.9642 17.1248 17.2759 17.5584 17.2808C17.9893 17.2759 18.348 16.9642 18.348 16.5892V11.2342C18.348 10.9468 18.1338 10.6887 17.8267 10.5888H17.8216Z" fill="#FFBDE9" stroke="#FFBDE9" stroke-width="0.5" stroke-miterlimit="10"/>
<path d="M26.1277 26.5C26.1277 26.5 26.1198 26.5 26.1172 26.5C26.1146 26.5 26.1093 26.5 26.1067 26.5H26.1277Z" fill="#FFBDE9" stroke="#FFBDE9" stroke-width="2" stroke-miterlimit="10"/>
<path d="M27 9.73744L24.0383 20.9134C23.7929 21.853 22.8666 22.5162 21.8052 22.5106L7.27147 22.4491C6.18252 22.445 5.2362 21.7623 4.98466 20.7975L2 9.3186" stroke="#FFBDE9" stroke-width="2.5" stroke-miterlimit="10" stroke-linecap="round"/>
<path d="M19.8446 5.40948C18.6299 0.26477 10.0854 0.129346 8.90137 5.40948" stroke="#FFBDE9" stroke-width="2.5" stroke-miterlimit="10" stroke-linecap="round"/>
</svg>
