<svg width="29" height="27" viewBox="0 0 29 27" fill="none" xmlns="http://www.w3.org/2000/svg">
<path d="M13.2733 2.43215L8.93313 10.027L5.7924 11.2116L8.34755 18.8878L11.7519 17.6063L19.8505 20.1172L13.2733 2.43215Z" stroke="#FFBDE9" stroke-width="2" stroke-linecap="round" stroke-linejoin="round"/>
<path d="M8.58967 18.9595L6.71678 19.6918C6.56901 19.7496 6.55016 20.0801 6.67467 20.4301L8.25283 24.8662C8.37734 25.2162 8.59807 25.4531 8.74584 25.3953L10.6187 24.6631C10.7665 24.6053 10.7854 24.2748 10.6608 23.9248L9.08268 19.4887C8.95817 19.1387 8.73744 18.9018 8.58967 18.9595Z" stroke="#FFBDE9" stroke-width="2" stroke-linecap="round" stroke-linejoin="round"/>
<path d="M19.3506 5.03761C20.8266 5.83312 21.99 7.14579 22.6385 8.74736C23.287 10.3489 23.3796 12.1381 22.9001 13.8038" stroke="#FFBDE9" stroke-width="2" stroke-linecap="round" stroke-linejoin="round"/>
<path d="M22.1167 1.38029C24.302 2.68193 25.9593 4.77469 26.7777 7.26604C27.596 9.75739 27.5192 12.4762 26.5617 14.9124" stroke="#FFBDE9" stroke-width="2" stroke-linecap="round" stroke-linejoin="round"/>
<path d="M8.40877 18.7959L6.17117 19.5788C5.18209 19.925 4.10488 19.8529 3.17655 19.3786C2.24819 18.9042 1.54474 18.0663 1.22092 17.0493C0.897099 16.0323 0.979478 14.9196 1.4499 13.9557C1.92031 12.9919 2.74025 12.256 3.72933 11.9099L5.96693 11.1269L8.40877 18.7959Z" stroke="#FFBDE9" stroke-width="2" stroke-linecap="round" stroke-linejoin="round"/>
</svg>
