<svg width="29" height="27" viewBox="0 0 29 27" fill="none" xmlns="http://www.w3.org/2000/svg">
<path d="M18.6838 23.5V21.1821C18.6838 19.9527 18.218 18.7735 17.389 17.9042C16.5599 17.0348 15.4354 16.5464 14.2629 16.5464H5.42096C4.24845 16.5464 3.12396 17.0348 2.29487 17.9042C1.46578 18.7735 1 19.9527 1 21.1821V23.5" stroke="#FFBDE9" stroke-width="2" stroke-linecap="round" stroke-linejoin="round"/>
<path d="M9.42096 12.7715C11.8626 12.7715 13.8419 10.696 13.8419 8.13574C13.8419 5.57549 11.8626 3.5 9.42096 3.5C6.97933 3.5 5 5.57549 5 8.13574C5 10.696 6.97933 12.7715 9.42096 12.7715Z" stroke="#FFBDE9" stroke-width="2" stroke-linecap="round" stroke-linejoin="round"/>
<path d="M26.7404 17.6593V15.9301C26.7404 15.0129 26.404 14.1332 25.8052 13.4846C25.2064 12.836 24.3943 12.4717 23.5475 12.4717H17.1617C16.3148 12.4717 15.5027 12.836 14.9039 13.4846C14.3051 14.1332 13.9688 15.0129 13.9688 15.9301V16.5492" stroke="#FFBDE9" stroke-width="2" stroke-linecap="round" stroke-linejoin="round"/>
<path d="M20.6602 9.09668C22.5932 9.09668 24.1602 7.52968 24.1602 5.59668C24.1602 3.66368 22.5932 2.09668 20.6602 2.09668C18.7272 2.09668 17.1602 3.66368 17.1602 5.59668C17.1602 7.52968 18.7272 9.09668 20.6602 9.09668Z" stroke="#FFBDE9" stroke-width="2" stroke-linecap="round" stroke-linejoin="round"/>
</svg>
