<svg width="31" height="30" viewBox="0 0 31 30" fill="none" xmlns="http://www.w3.org/2000/svg">
<path d="M1.55095 15.4448L1.59546 15.2708L1.51908 15.1082C0.920269 13.8338 0.585939 12.4123 0.585939 10.9143C0.585939 5.44116 5.04588 1 10.5528 1C16.0597 1 20.5197 5.44116 20.5197 10.9143C20.5197 16.3875 16.0597 20.8287 10.5528 20.8287C9.09089 20.8287 7.70144 20.5153 6.44965 19.9521L6.29457 19.8823L6.12912 19.9215C4.69471 20.2617 3.08519 20.6462 2.03813 20.8965L2.03811 20.8965C1.12267 21.1155 0.309899 20.2883 0.540137 19.3904C0.800267 18.376 1.19639 16.8307 1.55095 15.4448ZM6.60468 18.8258L6.60471 18.8258C7.79326 19.4146 9.13342 19.7458 10.5528 19.7458C15.4511 19.7458 19.4263 15.7942 19.4263 10.9143C19.4263 6.03448 15.4511 2.08287 10.5528 2.08287C5.65449 2.08287 1.67931 6.03448 1.67931 10.9143C1.67931 12.373 2.03423 13.7476 2.66225 14.9587L2.75661 15.1407L2.70591 15.339C2.7059 15.339 2.7059 15.339 2.7059 15.3391C2.3875 16.584 2.02026 18.0173 1.7429 19.0991L1.53697 19.9023L2.34346 19.7096C3.45839 19.4432 4.94576 19.0883 6.233 18.7835L6.23308 18.7835L6.42667 18.7376L6.60468 18.8258ZM22.507 7.76713C22.3648 7.23095 22.1873 6.70915 21.9769 6.20434C25.2511 7.83037 27.4976 11.1956 27.4976 15.0802C27.4976 16.5785 27.1631 18.0004 26.564 19.2748L26.488 19.4366L26.5317 19.6099C26.8838 21.005 27.2405 22.5176 27.467 23.4931C27.6691 24.3637 26.8987 25.1579 26.008 24.9727C24.9945 24.7619 23.4045 24.4243 21.9536 24.0864L21.789 24.0481L21.635 24.1174C20.3829 24.6809 18.9931 24.9945 17.5308 24.9945C15.3767 24.9945 13.3831 24.3152 11.7534 23.16C12.3099 23.1066 12.8557 23.0165 13.3883 22.892C14.6254 23.5431 16.0356 23.9117 17.5308 23.9117C18.9501 23.9117 20.2903 23.5803 21.4789 22.9916L21.4789 22.9916L21.6569 22.9034L21.8505 22.9492L21.8505 22.9493C23.1428 23.2553 24.6038 23.5707 25.6856 23.7983L26.4547 23.9602L26.2754 23.195C26.0309 22.1516 25.6969 20.7529 25.3777 19.5048L25.3777 19.5047L25.327 19.3065L25.4213 19.1245C26.0493 17.9135 26.4043 16.5389 26.4043 15.0802C26.4043 12.0368 24.8574 9.35431 22.507 7.76713Z" fill="#FFBDE9" stroke="#FFBDE9"/>
</svg>
